<mxfile host="app.diagrams.net" modified="2023-09-20T06:49:59.794Z" agent="Mozilla/5.0 (Windows NT 10.0; Win64; x64) AppleWebKit/537.36 (KHTML, like Gecko) Chrome/116.0.0.0 Safari/537.36" etag="fA2h4kR7ptk8jtkH1qoA" version="21.6.6" type="github">
  <diagram name="페이지-1" id="rHqScQjDzgFWavisRgnO">
    <mxGraphModel dx="1434" dy="790" grid="1" gridSize="10" guides="1" tooltips="1" connect="1" arrows="1" fold="1" page="1" pageScale="1" pageWidth="827" pageHeight="1169" math="0" shadow="0">
      <root>
        <mxCell id="0" />
        <mxCell id="1" parent="0" />
        <mxCell id="Qtea3njIvlWBkPwk92lj-1" value="Actor" style="shape=umlActor;verticalLabelPosition=bottom;verticalAlign=top;html=1;outlineConnect=0;" vertex="1" parent="1">
          <mxGeometry x="380" y="50" width="30" height="60" as="geometry" />
        </mxCell>
        <mxCell id="Qtea3njIvlWBkPwk92lj-2" value="회원가입" style="ellipse;whiteSpace=wrap;html=1;" vertex="1" parent="1">
          <mxGeometry x="40" y="210" width="120" height="80" as="geometry" />
        </mxCell>
        <mxCell id="Qtea3njIvlWBkPwk92lj-3" value="장바구니/구매" style="ellipse;whiteSpace=wrap;html=1;" vertex="1" parent="1">
          <mxGeometry x="290" y="320" width="120" height="80" as="geometry" />
        </mxCell>
        <mxCell id="Qtea3njIvlWBkPwk92lj-14" value="로그인" style="ellipse;whiteSpace=wrap;html=1;" vertex="1" parent="1">
          <mxGeometry x="180" y="210" width="120" height="80" as="geometry" />
        </mxCell>
        <mxCell id="Qtea3njIvlWBkPwk92lj-15" value="검색" style="ellipse;whiteSpace=wrap;html=1;" vertex="1" parent="1">
          <mxGeometry x="320" y="210" width="120" height="80" as="geometry" />
        </mxCell>
        <mxCell id="Qtea3njIvlWBkPwk92lj-16" value="마이페이지" style="ellipse;whiteSpace=wrap;html=1;" vertex="1" parent="1">
          <mxGeometry x="450" y="210" width="120" height="80" as="geometry" />
        </mxCell>
        <mxCell id="Qtea3njIvlWBkPwk92lj-17" value="찜 목록" style="ellipse;whiteSpace=wrap;html=1;" vertex="1" parent="1">
          <mxGeometry x="100" y="320" width="120" height="80" as="geometry" />
        </mxCell>
        <mxCell id="Qtea3njIvlWBkPwk92lj-18" value="리뷰" style="ellipse;whiteSpace=wrap;html=1;" vertex="1" parent="1">
          <mxGeometry x="480" y="320" width="120" height="80" as="geometry" />
        </mxCell>
        <mxCell id="Qtea3njIvlWBkPwk92lj-20" value="" style="endArrow=none;html=1;rounded=0;" edge="1" parent="1">
          <mxGeometry width="50" height="50" relative="1" as="geometry">
            <mxPoint x="390" y="430" as="sourcePoint" />
            <mxPoint x="440" y="380" as="targetPoint" />
          </mxGeometry>
        </mxCell>
      </root>
    </mxGraphModel>
  </diagram>
</mxfile>
